<?xml version="1.0" encoding="utf-8"?>
<!-- Generator: Adobe Illustrator 25.3.1, SVG Export Plug-In . SVG Version: 6.00 Build 0)  -->
<svg version="1.1" id="Layer_1" xmlns="http://www.w3.org/2000/svg" xmlns:xlink="http://www.w3.org/1999/xlink" x="0px" y="0px"
	 viewBox="0 0 564.2 414.4" style="enable-background:new 0 0 564.2 414.4;" xml:space="preserve">
<style type="text/css">
	.st0{fill:#FFD700;}
</style>
<g>
	<g>
		<path class="st0" d="M4.9,3.1c2.3,0.2,3.4,1.3,4.7,2c46.4,27.5,92.8,55,139.2,82.5c34.6,20.5,69.1,41.1,103.7,61.7
			c1.7,1,3.5,2.1,5.3,3c5,2.5,10,2.5,15,0c1.6-0.8,3.2-1.8,4.8-2.7c44.8-26.6,89.5-53.3,134.4-79.9C446.9,48.8,482,28.1,517,7.4
			c2.4-1.4,4.8-2.9,7.6-3.4c1.2,0.8,0.8,1.9,0.8,2.8c0,30.2,0,60.3,0.1,90.5c0,1.2,0,2.4-0.2,3.5c-0.5,3.5-2.9,5.5-5.8,7.1
			c-5.5,3.1-11,6.3-16.5,9.6c-47,27.9-93.9,55.8-140.9,83.7c-1.9,1.1-3.8,2.2-5.7,3.2c-1.1,0.6-1.9,1.3-2.4,2.5
			c-0.3,0.8-0.3,1.7,0.5,2.2c1,0.7,2,1.3,3,1.9c48.6,28.7,97.2,57.5,145.8,86.2c5.6,3.3,11.2,6.7,16.9,9.9c3.8,2.1,5.3,5.1,5.3,9.4
			c-0.1,31-0.1,62-0.1,93c0,0.5-0.1,1-0.1,1.5c-1.3,1-2.2-0.1-3.1-0.7c-12.7-7.5-25.4-15-38.1-22.5C427.1,354,370,320.2,312.9,286.4
			c-11.8-7-23.6-14.2-35.3-21.2c-2-1.2-4.1-2.3-6.2-3.2c-3.9-1.7-7.8-1.7-11.7-0.1c-2.3,1-4.6,2.1-6.7,3.4
			c-45.1,26.7-90.2,53.5-135.3,80.2c-34.9,20.7-69.8,41.3-104.8,61.8c-2.4,1.4-4.5,3.5-7.5,3.4c-0.8-2.6-0.3-5.3-0.4-7.9
			c-0.1-28,0.1-56-0.2-84c-0.1-6.4,2.2-10.1,7.7-13.1c12.9-7.1,25.4-14.9,38.1-22.4c4.2-2.5,8.4-4.9,12.6-7.4c1-0.6,2.2-1,2.7-2.2
			c-0.4-1-1.4-1.4-2.2-1.9c-15.1-9-30.1-18.2-45.6-26.6c-1.8-1-3.5-2-5.1-3.1c-5-3.5-7.6-8.3-8.1-14.4c-0.1-1.5-0.2-3-0.1-4.5
			c0.7-27.5,0.3-55,0.2-82.5c0-1,0-2,0-3c0-1.3,0.8-1.7,2-1c1,0.5,2,1.2,3,1.8c43.3,25.6,86.5,51.2,129.8,76.8
			c0.3,0.2,0.6,0.3,0.8,0.5c4.4,3.6,9.5,3.9,14.8,3c5.5-0.9,10.8-2.5,15.6-5.4c1.7-1,3.4-2.2,4.4-4c1.3-2.4,0.8-4.9-1.6-6
			c-12.9-6.1-24.7-14.1-37-21.4c-38.3-22.7-76.6-45.6-115.3-67.7c-2.6-1.5-5.2-3.1-7.5-5C8.3,105,5.3,99,4.7,91.8
			c-0.2-2-0.2-4-0.1-6c1-25.3,0.4-50.6,0.3-75.9C4.9,7.7,4.9,5.5,4.9,3.1z"/>
		<path class="st0" d="M443,207.4c1.5-1,2.6-1.8,3.8-2.5c36.1-21.5,72.3-42.9,108.4-64.4c0.9-0.5,1.7-1,2.6-1.5
			c1.1-0.6,1.8-0.2,1.8,1.3c0,0.8,0,1.7,0,2.5c0,43.2,0,86.4,0,129.7c0,1,0,2,0,3c-1.7,0.8-2.6-0.4-3.7-1.1
			c-19-11.2-38.1-22.5-57.1-33.8c-17-10.1-34-20.1-51-30.2C446.4,209.5,445,208.6,443,207.4z"/>
	</g>
</g>
<path class="st0" d="M-391.4-155.7c0.7,0.1,1,0.4,1.4,0.6c14.1,8.3,28.2,16.7,42.3,25.1c10.5,6.2,21,12.5,31.5,18.7
	c0.5,0.3,1.1,0.6,1.6,0.9c1.5,0.8,3,0.7,4.6,0c0.5-0.2,1-0.5,1.5-0.8c13.6-8.1,27.2-16.2,40.8-24.3c10.6-6.3,21.3-12.6,31.9-18.9
	c0.7-0.4,1.5-0.9,2.3-1c0.4,0.2,0.3,0.6,0.3,0.8c0,9.2,0,18.3,0,27.5c0,0.4,0,0.7-0.1,1.1c-0.1,1.1-0.9,1.7-1.8,2.2
	c-1.7,1-3.4,1.9-5,2.9c-14.3,8.5-28.5,16.9-42.8,25.4c-0.6,0.3-1.1,0.7-1.7,1c-0.3,0.2-0.6,0.4-0.7,0.7c-0.1,0.3-0.1,0.5,0.2,0.7
	c0.3,0.2,0.6,0.4,0.9,0.6c14.8,8.7,29.5,17.5,44.3,26.2c1.7,1,3.4,2,5.1,3c1.2,0.6,1.6,1.5,1.6,2.9c0,9.4,0,18.8,0,28.3
	c0,0.2,0,0.3,0,0.5c-0.4,0.3-0.7,0-0.9-0.2c-3.9-2.3-7.7-4.6-11.6-6.8c-17.3-10.3-34.7-20.5-52-30.8c-3.6-2.1-7.2-4.3-10.7-6.4
	c-0.6-0.4-1.2-0.7-1.9-1c-1.2-0.5-2.4-0.5-3.6,0c-0.7,0.3-1.4,0.6-2,1c-13.7,8.1-27.4,16.3-41.1,24.4c-10.6,6.3-21.2,12.5-31.8,18.8
	c-0.7,0.4-1.4,1.1-2.3,1c-0.3-0.8-0.1-1.6-0.1-2.4c0-8.5,0-17-0.1-25.5c0-1.9,0.7-3.1,2.4-4c3.9-2.2,7.7-4.5,11.6-6.8
	c1.3-0.8,2.5-1.5,3.8-2.2c0.3-0.2,0.7-0.3,0.8-0.7c-0.1-0.3-0.4-0.4-0.7-0.6c-4.6-2.7-9.2-5.5-13.8-8.1c-0.5-0.3-1.1-0.6-1.6-1
	c-1.5-1.1-2.3-2.5-2.5-4.4c0-0.5-0.1-0.9,0-1.4c0.2-8.3,0.1-16.7,0.1-25c0-0.3,0-0.6,0-0.9c0-0.4,0.2-0.5,0.6-0.3
	c0.3,0.2,0.6,0.4,0.9,0.5c13.1,7.8,26.3,15.5,39.4,23.3c0.1,0.1,0.2,0.1,0.3,0.2c1.3,1.1,2.9,1.2,4.5,0.9c1.7-0.3,3.3-0.8,4.7-1.6
	c0.5-0.3,1-0.7,1.3-1.2c0.4-0.7,0.2-1.5-0.5-1.8c-3.9-1.8-7.5-4.3-11.2-6.5c-11.6-6.9-23.3-13.9-35-20.6c-0.8-0.5-1.6-1-2.3-1.5
	c-1.8-1.3-2.7-3.2-2.8-5.4c0-0.6-0.1-1.2,0-1.8c0.3-7.7,0.1-15.4,0.1-23.1C-391.4-154.3-391.4-155-391.4-155.7z M-256.9-92.8
	c5.2,3.1,10.3,6.1,15.5,9.2c5.8,3.4,11.6,6.8,17.3,10.3c0.3,0.2,0.6,0.6,1.1,0.3c0-0.3,0-0.6,0-0.9c0-13.1,0-26.3,0-39.4
	c0-0.3,0-0.5,0-0.8c0-0.4-0.2-0.6-0.6-0.4c-0.3,0.1-0.5,0.3-0.8,0.5c-11,6.5-22,13-32.9,19.5c-0.3,0.2-0.7,0.4-1.1,0.7
	C-257.7-93.3-257.3-93-256.9-92.8z"/>
</svg>
