<?xml version="1.0" encoding="utf-8"?>
<!-- Generator: Adobe Illustrator 25.3.1, SVG Export Plug-In . SVG Version: 6.00 Build 0)  -->
<svg version="1.1" id="Layer_1" xmlns="http://www.w3.org/2000/svg" xmlns:xlink="http://www.w3.org/1999/xlink" x="0px" y="0px"
	 viewBox="0 0 660 131" style="enable-background:new 0 0 660 131;" xml:space="preserve">
<style type="text/css">
	.st0{fill:#FFFFFF;}
</style>
<g>
	<g>
		<path class="st0" d="M562.9,74.1c-0.5,0.2-0.7,0.4-0.9,0.4c-4.2,0.2-3.9,0.2-3.9-3.6c0-1-0.1-1.9-0.1-3.3c-1.3,1-1.5,2.2-2.1,3.1
			c-1,1.6-2.6,1.7-3.7,0.2c-0.6-0.9-0.5-2.3-2-2.5c-0.6,1-0.3,2-0.4,3c-0.1,0.9,0.1,1.8-0.4,2.7c-0.3,0.1-0.7,0.2-1.1,0.2
			c-3.4,0.1-3.4,0.1-3.4-3.3c0-3.7,0-7.5,0-11.2c0-1.5,0.3-1.8,1.8-1.8c0.1,0,0.3,0,0.4,0c2.2-0.3,3.7,0.4,4.5,2.6
			c0.5,1.4,1.3,2.8,2.1,4.3c1.5-0.9,1.8-2.5,2.5-3.8c1.7-3.3,1.7-3.3,5.3-3.1c0.9,0.1,1.5,0.4,1.5,1.3C563,64.5,563,69.4,562.9,74.1
			z"/>
		<path class="st0" d="M336.8,65.3c0-1.9,0.1-3.8,0.1-5.7c0-0.9,0.5-1.4,1.5-1.4c0.6,0,1.3,0,1.9,0c1,0,1.4,0.6,1.4,1.5
			c0,4.6,0,9.3-0.1,13.9c0,0.2-0.2,0.5-0.3,0.7c-2.5,0.9-4.1-0.1-5.6-2.1c-1.2-1.6-2.5-3.2-4.4-4.8c-0.6,1.8-0.3,3.3-0.4,4.7
			c-0.1,2.3-0.2,2.4-2.4,2.4c-0.4,0-0.8,0-1.2,0c-0.7,0-1.2-0.5-1.2-1.2c0-4.6,0-9.3,0-13.9c0-0.7,0.4-1.1,1.2-1.2
			c1.5-0.1,2.7,0,3.8,1.4c1.5,2,3.3,3.9,5,5.9C336.3,65.4,336.5,65.4,336.8,65.3z"/>
		<path class="st0" d="M596.9,68c0,1.8,0,3.5,0,5.3c0,0.7-0.4,1.2-1.2,1.2c-0.8,0-1.5,0-2.3,0c-0.7,0-1.2-0.4-1.2-1.2
			c0-4.6,0-9.3,0-13.9c0-0.8,0.4-1.1,1.2-1.2c1.5-0.1,2.7,0,3.8,1.4c1.6,2,3.3,3.9,4.9,5.8c0.9-0.1,0.8-0.7,0.8-1.1
			c0-0.9,0-1.8,0-2.7c0-3.5-0.2-3.5,3.8-3.2c0.6,0,0.9,0.5,0.9,1c0.1,5,0.1,10,0,14.9c-2.6,0.9-4.2,0.2-5.6-1.7
			c-1.3-1.7-2.8-3.3-4.3-4.9C597.4,67.8,597.2,67.9,596.9,68z"/>
		<path class="st0" d="M537.8,74.2c-0.8,0.6-1.7,0.3-2.6,0.4c-1.6,0.2-2.7-0.5-3.4-1.9c-0.5-0.9-1.1-1.7-1.7-2.5
			c-0.2-0.2-0.7-0.2-1-0.2c-0.5,0-0.5,0.5-0.6,0.8c-0.1,0.2,0,0.5-0.1,0.8c-0.2,1,0.4,2.2-0.7,2.8c-1,0.6-2.3,0.3-3.4,0.2
			c-0.6-0.1-0.9-0.5-0.9-1.1c0-4.6,0-9.3,0-13.9c0-0.7,0.4-1.3,1.2-1.3c2.4,0,4.9-0.2,7.3,0c4.8,0.4,6.8,5.5,4.5,8.8
			c-0.2,0.3-0.4,0.6-0.7,0.9c-0.5,0.6-0.4,1.2,0,1.8c0.4,0.8,0.9,1.5,1.4,2.3C537.4,72.8,538,73.3,537.8,74.2z M530.1,62.2
			c-1.2-0.1-1.7,0.3-1.8,1.4c-0.1,1.3,0.3,1.9,1.2,2c1.6,0.1,2.6-0.4,2.7-1.4C532.5,63.1,531.7,62.3,530.1,62.2z"/>
		<path class="st0" d="M471.4,68.7c0.5,2.1,2.3,3.5,2.7,5.5c-0.9,0.6-1.8,0.3-2.7,0.4c-1.6,0.2-2.7-0.4-3.4-1.9
			c-0.4-0.9-1.1-1.8-1.7-2.6c-0.2-0.2-0.7-0.3-1.1-0.2c-0.4,0-0.7,0.3-0.7,0.7c0,0.5-0.1,1-0.1,1.5c-0.1,0.7,0.2,1.7-0.5,2.1
			c-1.2,0.6-2.5,0.5-3.8,0.1c-0.5-0.2-0.6-0.8-0.6-1.3c0-3.2,0-6.4,0-9.7c0.1-5.9-0.7-5.1,5.1-5.2c0.9,0,1.8,0,2.7,0
			c4.5-0.2,8.2,5.2,4.9,9.2C472,67.9,471.7,68.3,471.4,68.7z M466.3,65.7c0.2,0,0.7-0.1,1.2-0.2c0.7-0.2,1.2-1.2,0.9-1.9
			c-0.2-0.7-0.6-1.2-1.3-1.3c-0.9-0.1-1.8-0.4-2.5,0.4c-0.5,0.6-0.4,1.5-0.2,2.2C464.7,65.6,465.4,65.7,466.3,65.7z"/>
		<path class="st0" d="M507.8,74.7c-5.9,0-10-4.8-8.9-9.9c0.8-3.8,4.3-6.5,8.4-6.7c4.2-0.1,7.8,2.4,8.8,6.1
			c1.3,4.5-1.6,9.2-6.4,10.2C509,74.7,508.3,74.7,507.8,74.7z M511.5,66.4c0-2.5-1.7-4.3-4-4.2c-2.3,0.1-3.8,1.9-3.8,4.4
			c0.1,2.4,1.6,3.9,3.8,4C509.9,70.7,511.5,69,511.5,66.4z"/>
		<path class="st0" d="M227.6,69.3c0,1.7,0,2.5,0,3.2c-0.1,1.7-0.4,2.2-2,2c-1.6-0.2-3.2-0.2-4.9,0c-4.5,0.6-8.2-2.4-8.7-6.8
			c-0.6-4.9,2.3-9,6.9-9.5c2.7-0.3,5.2,0.1,7.1,2.2c0.3,0.3,0.6,0.7,0.6,1c0,1.1-1,1.4-1.7,1.9c-0.5,0.4-1.1,0.7-1.7,0.3
			c-0.6-0.4-1.3-0.9-2-1.2c-0.7-0.3-1.5-0.3-2.3,0c-1.9,0.8-2.8,3.3-2.1,5.7c0.6,2,2.4,2.9,4.6,2.3c0.3-0.1,0.8-0.4,0.9-0.7
			c0.3-0.9-0.6-0.4-0.9-0.7c-0.6-0.5-0.9-1.6-0.6-2.4c0.2-0.6,0.7-0.7,1.2-0.7c0.4-0.1,0.8,0,1.2,0
			C228.1,65.9,227.6,65.4,227.6,69.3z"/>
		<path class="st0" d="M369.9,69.1c1.4,0.5,2.4,0.9,3.5,1.3c0.9,0.3,1.8,0.4,2.7,0.1c0.1,0,0.3-0.1,0.3-0.2c0-0.2,0-0.6-0.2-0.7
			c-0.4-0.3-0.9-0.5-1.3-0.7c-1.1-0.4-2.2-0.7-3.3-1.2c-1.7-0.7-2.8-1.7-2.9-3.7c-0.1-2.1,0.7-3.8,2.5-4.9c0.5-0.3,1.2-0.6,1.8-0.8
			c2.6-0.7,5.6-0.1,8.4,1.7c-0.1,0.9-0.6,1.7-1.1,2.5c-0.4,0.6-0.8,0.9-1.6,0.6c-1.1-0.4-2.2-0.7-3.3-1c-0.5-0.1-1,0-1.2,0.7
			c-0.1,0.5,0.3,0.7,0.6,0.8c0.7,0.3,1.5,0.5,2.2,0.8c1,0.4,1.9,0.7,2.9,1.2c1.7,0.8,2.4,2.3,2.3,4.1c0,1.8-0.8,3.2-2.4,4.1
			c-1,0.6-2.2,0.8-3.3,0.9c-2.6,0.2-5.1-0.3-7.5-1.4c-0.4-0.2-0.9-0.6-0.5-1.2C368.8,71.2,369.3,70.3,369.9,69.1z"/>
		<path class="st0" d="M390.4,69.2c0.9,0.3,1.9,0.7,2.8,1c0.9,0.3,1.8,0.5,2.7,0.3c0.3-0.1,0.8-0.1,0.7-0.6c0-0.2-0.2-0.5-0.4-0.6
			c-0.7-0.3-1.4-0.5-2.2-0.8c-0.8-0.3-1.7-0.6-2.5-0.9c-3.8-1.5-3.1-6.4-0.8-8c1.2-0.9,2.5-1.4,3.9-1.5c2-0.1,3.8,0.3,5.7,1
			c1.3,0.5,1.5,1,0.8,2.4c-0.2,0.5-0.5,0.9-0.8,1.3c-0.3,0.4-0.8,0.6-1.4,0.4c-1.2-0.4-2.4-1-3.7-1c-0.4,0-0.7,0.2-0.8,0.6
			c-0.2,0.5,0.2,0.7,0.5,0.9c1.6,0.6,3.2,1.1,4.7,1.7c1.6,0.7,2.6,2,2.7,3.9c0,2.6-1.2,4.4-3.8,5.1c-2.2,0.6-4.4,0.5-6.5-0.1
			C388,73.3,387.1,73.2,390.4,69.2z"/>
		<path class="st0" d="M638.2,58.3c3.4,0,7,0,10.6,0c0.3,0,0.8,0.3,0.9,0.6c0.3,0.9,0.3,1.8,0,2.6c-0.1,0.3-0.6,0.6-0.9,0.6
			c-1.3,0.1-2.6,0.1-3.9,0.1c-0.4,0-0.8,0-1.2,0c-0.8,0-1.2,0.4-1.2,1.2c0,0.6,0.4,0.9,1,0.9c1.2,0,2.3,0,3.5,0.1
			c1.4,0.1,1.7,0.4,1.7,1.9c0,1.4-0.3,1.7-1.8,1.8c-1,0-2.1,0-3.1,0c-0.7,0-1.2,0.3-1.3,1.1c0,0.8,0.4,1.2,1.1,1.2
			c1.4,0,2.8,0,4.2,0.1c1.9,0.1,2.2,0.4,2.2,2.3c0,1.3-0.3,1.6-1.6,1.7c-0.3,0-0.5,0-0.8,0c-2.7,0-5.4,0-8.1,0
			c-1.8,0-2.1-0.2-2.1-1.9c0-1.9,0-3.9,0-5.8c0-2.1,0-4.1,0-6.2C637.5,59.9,637.5,59.1,638.2,58.3z"/>
		<path class="st0" d="M349.5,66.2c0-2.2,0-4.4,0-6.6c0-0.9,0.5-1.4,1.5-1.4c3.1,0,6.2,0,9.3,0c1.2,0,1.5,0.4,1.6,1.7
			c0,0.3,0,0.5,0,0.8c0,0.9-0.4,1.5-1.4,1.5c-1.3,0-2.6,0-3.9,0c-0.5,0-1,0.1-1.5,0.3c-0.3,0.1-0.4,0.6-0.5,0.9
			c-0.1,0.4,0.2,0.8,0.6,0.8c1.2,0.1,2.3,0.1,3.5,0.2c1.7,0.1,2.1,0.4,2.1,2c0,1.5-0.4,1.7-2.3,1.8c-1,0-2.1,0-3.1,0.1
			c-0.6,0-0.9,0.5-0.9,1.1c0,0.6,0.3,1.1,0.8,1.1c1.7,0.1,3.4,0.1,5,0.1c0.5,0,1.1,0.1,1.4,0.5c0.4,0.5,0.3,2.6-0.1,3
			c-0.3,0.2-0.7,0.4-1,0.4c-3.2,0-6.5,0.1-9.7,0c-1.2,0-1.5-0.4-1.5-1.8C349.4,70.6,349.4,68.4,349.5,66.2
			C349.5,66.2,349.5,66.2,349.5,66.2z"/>
		<path class="st0" d="M440.1,66c0-2.2,0-4.4,0-6.6c0-0.7,0.5-1.2,1.2-1.2c3.2,0,6.5,0,9.7,0c0.9,0,1.3,0.6,1.4,1.5
			c0.1,1.9-0.2,2.4-2,2.4c-1.5,0.1-3.1,0-4.6,0.1c-0.5,0-0.8,0.6-0.7,1.2c0,0.5,0.3,0.8,0.7,0.8c1.3,0.1,2.6,0.1,3.9,0.1
			c1.3,0.1,1.6,0.4,1.6,1.6c0.1,1.7-0.3,2.1-1.9,2.2c-1.2,0-2.3,0-3.5,0.1c-0.6,0-0.9,0.5-0.9,1.1c0,0.6,0.2,1.1,0.8,1.1
			c1.5,0.1,3.1,0.1,4.6,0.1c2,0.1,2.2,0.3,2.2,2.3c0,1.3-0.3,1.7-1.5,1.7c-3.1,0-6.2,0-9.3,0c-1.3,0-1.6-0.3-1.6-1.6
			C440,70.7,440,68.4,440.1,66C440,66,440.1,66,440.1,66z"/>
		<path class="st0" d="M623.6,58.2c2.6,0,4.7,0.7,6.4,2.6c0.5,0.5,0.5,1.2-0.1,1.6c-0.4,0.3-0.8,0.6-1.3,0.9
			c-0.7,0.5-1.4,0.7-2.1,0.1c-0.4-0.3-0.9-0.6-1.3-0.8c-1.7-0.7-3.5-0.2-4.6,1c-1.1,1.4-1.2,3.9-0.1,5.4c1,1.5,3,2,4.9,1.3
			c0.1,0,0.2-0.1,0.3-0.2c1.4-1.7,2.7-0.8,4.1,0.1c1.1,0.7,1.2,1.3,0.3,2.1c-3.9,3.8-10.9,3.1-13.9-1.4c-3.4-5.1-0.4-11.6,5.7-12.6
			C622.5,58.2,623.1,58.2,623.6,58.2z"/>
		<path class="st0" d="M585.6,74.1c-1.1,0.7-1.9,0.5-2.6,0.6c-1.5,0.2-2.4-0.4-2.8-1.9c-0.2-1.1-1.1-1.3-2.1-1.3
			c-1.6,0-3.1-0.1-3.5,2c-0.2,0.9-0.9,1.2-1.8,1.2c-1-0.1-2.1,0.3-3-0.3c0-0.1-0.1-0.3-0.1-0.4c1.4-5.1,3.5-9.9,5.4-14.8
			c0.2-0.5,0.6-0.8,1.2-0.8c0.6,0,1.3,0,1.9-0.1c1-0.1,1.7,0.4,2.1,1.3C582.1,64.3,583.8,69.2,585.6,74.1z M577.8,64.6
			c-1.2,0.9-1.2,1.9-1.3,2.7c-0.1,0.7,0.4,0.9,0.9,0.9c1.1,0.1,1.5-0.3,1.2-1.3C578.4,66.3,578.1,65.6,577.8,64.6z"/>
		<path class="st0" d="M419.8,66.6c0-1.9,0-3.9,0-5.8c0-2.5,0.1-2.5,2.7-2.5c1.5,0,3.1,0,4.7,0c1.3,0,2.6,0.4,3.6,1.2
			c1.8,1.3,2.7,3.1,2.4,5.4c-0.4,2.2-1.6,3.8-3.8,4.5c-0.6,0.2-1.2,0.3-1.9,0.4c-0.9,0.1-1.9-0.3-2.5,0.5c-0.6,0.7-0.2,1.7-0.3,2.6
			c-0.1,1.5-0.3,1.7-1.9,1.8c-0.6,0-1.3,0-1.9-0.1c-0.6,0-0.9-0.4-0.9-1C419.8,71.2,419.9,68.9,419.8,66.6
			C419.8,66.6,419.8,66.6,419.8,66.6z M424.6,64c0,1.2,0.4,1.7,1.5,1.7c1.3,0,2.1-0.6,2.1-1.6c0.1-1.1-0.8-1.9-2.3-1.8
			C424.9,62.3,424.6,62.7,424.6,64z"/>
		<path class="st0" d="M278.8,74.3c-0.3,0.1-0.5,0.3-0.7,0.3c-4.2,0.2-3.9,0.2-3.9-3.6c0-3.7,0-7.5,0-11.2c0-0.9,0.4-1.5,1.4-1.5
			c3.1,0,6.2,0,9.3,0c1.1,0,1.4,0.5,1.5,1.8c0,1.7-0.3,2.1-1.9,2.1c-1.3,0-2.6,0-3.9,0.1c-0.7,0-1.2,0.4-1.3,1.1
			c-0.1,0.8,0.5,1.4,1.5,1.4c0.9,0.1,1.8,0,2.7,0.1c0.7,0,1.4,0.1,1.5,0.9c0.1,0.7,0.3,1.6-0.2,2.2c-0.2,0.3-0.6,0.4-1,0.5
			c-1,0.1-2.1,0.1-3.1,0.1c-0.9,0.1-1.4,0.6-1.5,1.5C279,71.5,279.4,72.9,278.8,74.3z"/>
		<path class="st0" d="M195.6,66.4c0-2.3,0-4.6,0-7c0-0.7,0.5-1.2,1.2-1.2c2.8,0,5.7,0,8.5,0c0.9,0,1.4,0.5,1.4,1.4
			c0,0.3,0,0.5,0,0.8c0,1.3-0.3,1.7-1.5,1.7c-1.3,0.1-2.6,0-3.9,0.1c-0.7,0-1.1,0.5-1.1,1.3c0,0.8,0.5,1.1,1.2,1.2
			c0.8,0.1,1.5,0,2.3,0.1c1.4,0.1,1.7,0.5,1.7,1.9c0,1.3-0.3,1.6-1.5,1.7c-1.1,0.1-2.5-0.4-3.4,0.5c-0.9,0.9-0.4,2.2-0.5,3.3
			c-0.1,2.2-0.2,2.3-2.5,2.3c-0.1,0-0.3,0-0.4,0c-1.3-0.1-1.7-0.3-1.7-1.5C195.5,70.8,195.5,68.6,195.6,66.4
			C195.5,66.4,195.5,66.4,195.6,66.4z"/>
		<path class="st0" d="M481.1,66.2c0-2.2,0-4.4,0-6.6c0-0.9,0.5-1.4,1.5-1.4c2.8,0,5.7,0,8.5,0c1.7,0,1.9,0.3,1.9,2.1
			c0,1.5-0.2,1.8-1.8,1.8c-1.4,0.1-2.8,0-4.3,0.1c-0.8,0-1,0.6-1,1.4c0,0.6,0.3,1,0.9,1.1c1.3,0.1,2.6,0.1,3.9,0.2
			c1,0.1,1.1,0.9,1.1,1.7c0,0.8-0.1,1.6-1.1,1.7c-0.9,0.1-1.8,0.1-2.7,0.1c-1.9,0.1-2.1,0.2-2.2,2.3c0,0.5,0,1,0,1.5
			c-0.1,2.1-0.2,2.2-2.2,2.2c-2.5,0-2.6-0.1-2.6-2.6C481.1,70.1,481.1,68.2,481.1,66.2C481.1,66.2,481.1,66.2,481.1,66.2z"/>
		<path class="st0" d="M312,58.2c1.9,0,3.9,0,5.8,0c1.2,0,1.5,0.4,1.5,1.7c0,0.4,0,0.8,0,1.2c-0.1,0.6-0.3,0.9-0.9,1
			c-0.1,0-0.3,0-0.4,0.1c-1,0.1-2.2-0.3-3,0.4c-1,0.9-0.5,2.2-0.5,3.3c-0.1,2.4,0,4.9,0,7.3c0,0.9-0.5,1.4-1.4,1.4
			c-3.5,0.1-3.5,0.2-3.5-3.3c0-2.3,0-4.6,0-7c0-1.8-0.3-2-2-2.2c-0.6-0.1-1.3,0-1.9-0.1c-0.7-0.1-1.1-0.5-1.2-1.3c0-0.4,0-0.8,0-1.2
			c0-0.9,0.4-1.5,1.4-1.5C307.9,58.2,310,58.3,312,58.2C312,58.2,312,58.2,312,58.2z"/>
		<path class="st0" d="M293,66.7c0-2.3,0-4.6,0-7c0-0.9,0.4-1.4,1.4-1.5c0.6,0,1.3,0,1.9,0c1.3,0.1,1.7,0.4,1.7,1.6
			c0,2.7,0,5.4,0,8.1c0,1.8,0,3.6,0,5.4c0,0.8-0.5,1.1-1.2,1.2c-0.1,0-0.3,0-0.4,0c-3.9,0.1-3.4,0-3.4-3.3
			C293,69.8,293,68.3,293,66.7C293,66.7,293,66.7,293,66.7z"/>
		<path class="st0" d="M247,65.2c0-8.3,0-16.5,0-24.8c0-1,0-2.1,0-3.1c0-0.6,0.3-1,0.9-1c2.8,0,5.7,0,8.5,0c0.6,0,0.9,0.5,0.9,1
			c0,0.6,0,1.3,0,1.9c0,17.3,0,34.6,0,51.9c0,3.7,0.1,3.5-3.3,3.4c-2.3-0.1-4.6,0.5-6.8-0.4c-0.5-2.2-0.2-4.3-0.3-6.5
			C246.9,80.2,247,72.7,247,65.2z"/>
	</g>
	<path class="st0" d="M10,5.8c0.7,0.1,1,0.4,1.4,0.6c13.6,8,27.2,16.1,40.8,24.1c10.1,6,20.2,12,30.3,18c0.5,0.3,1,0.6,1.5,0.9
		c1.5,0.7,2.9,0.7,4.4,0c0.5-0.2,0.9-0.5,1.4-0.8c13.1-7.8,26.2-15.6,39.3-23.4c10.2-6.1,20.5-12.1,30.8-18.2c0.7-0.4,1.4-0.8,2.2-1
		c0.3,0.2,0.2,0.5,0.2,0.8c0,8.8,0,17.7,0,26.5c0,0.3,0,0.7-0.1,1c-0.1,1-0.8,1.6-1.7,2.1c-1.6,0.9-3.2,1.9-4.8,2.8
		c-13.7,8.2-27.5,16.3-41.2,24.5c-0.5,0.3-1.1,0.6-1.7,0.9c-0.3,0.2-0.6,0.4-0.7,0.7c-0.1,0.2-0.1,0.5,0.2,0.7
		c0.3,0.2,0.6,0.4,0.9,0.5c14.2,8.4,28.5,16.8,42.7,25.2c1.6,1,3.3,2,4.9,2.9c1.1,0.6,1.6,1.5,1.6,2.8c0,9.1,0,18.2,0,27.2
		c0,0.1,0,0.3,0,0.4c-0.4,0.3-0.6,0-0.9-0.2c-3.7-2.2-7.4-4.4-11.1-6.6c-16.7-9.9-33.4-19.8-50.1-29.7c-3.5-2-6.9-4.1-10.3-6.2
		c-0.6-0.4-1.2-0.7-1.8-0.9c-1.1-0.5-2.3-0.5-3.4,0c-0.7,0.3-1.3,0.6-2,1C69.4,90.3,56.2,98.2,43,106c-10.2,6-20.4,12.1-30.7,18.1
		c-0.7,0.4-1.3,1-2.2,1c-0.2-0.8-0.1-1.5-0.1-2.3c0-8.2,0-16.4-0.1-24.6c0-1.9,0.6-2.9,2.3-3.8c3.8-2.1,7.4-4.4,11.2-6.6
		c1.2-0.7,2.5-1.4,3.7-2.2c0.3-0.2,0.6-0.3,0.8-0.6c-0.1-0.3-0.4-0.4-0.6-0.6c-4.4-2.6-8.8-5.3-13.3-7.8c-0.5-0.3-1-0.6-1.5-0.9
		c-1.5-1-2.2-2.4-2.4-4.2c0-0.4-0.1-0.9,0-1.3c0.2-8,0.1-16.1,0.1-24.1c0-0.3,0-0.6,0-0.9c0-0.4,0.2-0.5,0.6-0.3
		c0.3,0.2,0.6,0.3,0.9,0.5c12.7,7.5,25.3,15,38,22.5c0.1,0,0.2,0.1,0.2,0.2c1.3,1.1,2.8,1.1,4.3,0.9c1.6-0.3,3.1-0.7,4.6-1.6
		c0.5-0.3,1-0.6,1.3-1.2c0.4-0.7,0.2-1.4-0.5-1.8c-3.8-1.8-7.2-4.1-10.8-6.2c-11.2-6.6-22.4-13.3-33.7-19.8
		c-0.8-0.4-1.5-0.9-2.2-1.5c-1.7-1.3-2.6-3.1-2.7-5.2c0-0.6-0.1-1.2,0-1.8C10.2,22.6,10,15.1,10,7.7C10,7.1,10,6.5,10,5.8z"/>
	<path class="st0" d="M138.2,65.5c0.5-0.3,0.8-0.5,1.1-0.7c10.6-6.3,21.2-12.6,31.7-18.8c0.3-0.2,0.5-0.3,0.8-0.4
		c0.3-0.2,0.5-0.1,0.5,0.4c0,0.2,0,0.5,0,0.7c0,12.6,0,25.3,0,37.9c0,0.3,0,0.6,0,0.9c-0.5,0.2-0.8-0.1-1.1-0.3
		c-5.6-3.3-11.1-6.6-16.7-9.9c-5-2.9-10-5.9-14.9-8.8C139.2,66.2,138.8,65.9,138.2,65.5z"/>
</g>
</svg>
